<?xml version="1.0" encoding="utf-8"?>
<!-- Generator: Adobe Illustrator 19.0.1, SVG Export Plug-In . SVG Version: 6.00 Build 0)  -->
<svg version="1.1" id="dinosaur" xmlns="http://www.w3.org/2000/svg" xmlns:xlink="http://www.w3.org/1999/xlink" x="0px" y="0px"
	 viewBox="-1280 -120 1050 750" xml:space="preserve">
<style type="text/css">
	.st0{fill:#93AF1C;}
	.st1{opacity:0.4;enable-background:new    ;}
	.st2{fill:#FFFFFF;}
	.st3{fill:#5A7400;}
	.st4{fill:#7CA001;}
	.st5{fill:#9DC31B;}
	.st6{fill:#CCEA5F;}
	.st7{opacity:0.6;enable-background:new    ;}
	.st8{fill:#581C15;}
	.st9{fill:#EF6270;}
	.st10{fill:#F7F5F5;}
	.st11{fill:#D6D6D6;}
	.st12{fill:#3A0F0D;}
	.st13{fill:#FCBD92;}
	.st14{fill:#263628;}
	.st15{opacity:0.3;enable-background:new    ;}
</style>
<g transform="scale(-1, 1)">
	<g>
		<g>
			<path class="st0" d="M507.7,261.1l-8,36.4c0,0-3.6,19.2-6.8,24.8c-8,13.7-34.3,28.1-37.2,52.4c0,0,6.9,6.9,14.7,4.9
				c4.8-1.2,11.1,0.5,16,4.5c0,0,5.7-2.3,6.9-13c0.8-7.2,7.2-14,16.4-18c0,0,23.2-12.8,25.6-27.6
				C535.3,325.5,525.7,215.5,507.7,261.1z"/>
		</g>
		<g>
			<g>
				<g class="st1">
					<path class="st2" d="M456,382.7c-0.4-1.5-0.6-3.2-0.6-4.8s0.1-3.2,0.3-4.8c0.4-3.2,1.4-6.3,2.6-9.4c0.6-1.5,1.3-3,2.1-4.4
						c0.8-1.4,1.6-2.8,2.5-4.2c1.8-2.7,3.8-5.3,6-7.7c1.1-1.2,2.2-2.4,3.3-3.5l3.4-3.4c2.3-2.3,4.5-4.5,6.7-6.9
						c2.2-2.3,4.3-4.7,6.2-7.2c1.9-2.5,3.8-5.1,4.8-7.8v0.1l4.3-17.9c1.5-6,2.9-11.9,4.4-17.9l1.1-4.5l0.6-2.2
						c0.1-0.4,0.2-0.8,0.3-1.1l0.3-1.1c0.7-3,1.5-6,2.5-8.9s2.1-5.8,3.5-8.6c0.7-1.4,1.5-2.7,2.5-3.9c1-1.2,2.2-2.3,3.7-2.6
						c-1.5,0.4-2.6,1.6-3.4,2.9c-0.9,1.2-1.6,2.6-2.2,4c-1.2,2.8-2.2,5.7-3,8.6c-0.8,2.9-1.5,5.9-2.1,8.9l-0.2,1.1
						c-0.1,0.4-0.2,0.8-0.2,1.2l-0.5,2.2l-1,4.5c-1.3,6-2.7,12-4,18l-4.1,18v0.1v0.1c-0.6,1.7-1.4,3.1-2.3,4.5s-1.9,2.7-2.9,4
						c-2,2.5-4.2,4.9-6.4,7.3c-2.2,2.3-4.5,4.6-6.8,6.8s-4.7,4.4-6.8,6.7c-1.1,1.1-2.1,2.3-3.1,3.5s-2,2.5-2.9,3.8s-1.8,2.6-2.6,4
						c-0.8,1.4-1.5,2.8-2.2,4.2c-1.3,2.9-2.4,5.9-3,9c-0.3,1.6-0.5,3.1-0.6,4.7C455.7,379.5,455.7,381.1,456,382.7z"/>
				</g>
			</g>
		</g>
		<g>
			<path class="st3" d="M472.2,377.9c0,0,1.3,3.2-3.8,6.5c0,0-7.4,3.6-8.5,7.2c0,0-2.9,8.4-6.3-1.4c0,0-2.8-9.1,2.1-16.2
				C455.7,374.1,460.6,379.1,472.2,377.9z"/>
		</g>
		<g>
			<g>
				<g class="st1">
					<path class="st2" d="M481.1,388.3c0,0,1.2-0.6,3.1-2c1-0.7,2.1-1.6,3.2-2.7c1.1-1.1,2.3-2.6,3.2-4.3c0.4-0.9,0.7-1.8,0.9-2.8
						c0.2-1.1,0.4-2.2,0.6-3.3c0.4-2.3,0.9-4.7,1.8-7.2c0.2-0.6,0.5-1.3,0.8-1.9c0.3-0.6,0.8-1.3,1.1-1.8c0.7-1,1.6-2.2,2.6-3.2
						c2.1-2,4.4-3.4,6.7-4.9c2.3-1.4,4.8-2.7,7.1-3.9c2.3-1.3,4.5-2.6,6.6-4s4-2.8,5.7-4.3s3.3-3,4.6-4.5c1.3-1.5,2.4-3,3.2-4.4
						c0.8-1.4,1.5-2.7,1.9-3.7c0.4-1.1,0.7-2,0.9-2.6c0.2-0.6,0.2-0.9,0.2-0.9s0,0.3-0.1,1c-0.1,0.6-0.2,1.6-0.6,2.7
						c-0.7,2.3-2,5.5-4.5,8.8s-6,6.7-10.2,9.7c-2.1,1.5-4.3,2.9-6.7,4.3c-2.4,1.3-4.7,2.6-7,3.9c-2.3,1.4-4.5,2.8-6.3,4.5
						c-0.9,0.9-1.6,1.8-2.4,2.9c-0.4,0.6-0.7,0.9-1,1.5c-0.3,0.5-0.5,1.1-0.8,1.6c-0.9,2.3-1.5,4.6-2,6.8c-0.3,1.1-0.5,2.2-0.8,3.3
						s-0.7,2.2-1.2,3.1c-1.1,1.9-2.5,3.2-3.8,4.3s-2.5,1.8-3.6,2.4c-1,0.6-1.9,1-2.5,1.2C481.5,388.2,481.1,388.3,481.1,388.3z"/>
				</g>
			</g>
		</g>
		<g>
			<path class="st3" d="M476.5,398.7c0,0-6.8-4.5-3.7-20.8c0,0,6.2-1.9,15.3,4.8c0,0,1.3,1.6-2,4.5c0,0-6.4,5.8-5.9,7.9
				C480.2,395,480.4,400.6,476.5,398.7z"/>
		</g>
	</g>
	<g>
		<g>
			<path class="st4" d="M734.1,330.1c-24.1,6.2-54.4,22.5-61.6,54.6c-5.7,25.2-3.9,54.4,37.9,93.3l55.8,49.3c0,0,8.4,14.1-1.2,34.3
				c0,0-0.1,10.3,17.8,3.7c0,0,45-4.4,52.6-8.3c7.6-3.9,47.5-34.4,55.6-50.8c0,0,9.6-13.4-6-24.8c-10.9-8-23.5-29.1-26.2-34.9
				c-8.9-19-12.1-20.4-10.2-51.4c1-17.6-15.4-52.1-44-64.9C785.9,321.7,766.1,321.9,734.1,330.1z"/>
		</g>
		<g>
			<g class="st1">
				<path class="st3" d="M854.7,436.5c0,0,0,0.2,0.1,0.5s0.2,0.8,0.5,1.3c0.5,1.1,1.4,2.8,2.5,4.8c2.3,4,5.9,9.7,10.5,16.2
					c2.3,3.2,5,6.7,7.9,10.1c1.5,1.7,3,3.4,4.7,5c0.8,0.8,1.7,1.6,2.6,2.3c0.4,0.4,0.9,0.7,1.4,1.1c0.5,0.4,1,0.8,1.5,1.1l0.8,0.6
					l0.8,0.7c0.5,0.5,1.1,0.9,1.5,1.4c1,0.9,1.9,2,2.8,3.1c1.7,2.2,3.1,4.9,3.8,7.9c0.6,3,0.4,6.1-0.3,9c-0.8,2.9-2.1,5.5-3.6,7.9
					c-3,4.8-7,8.7-10.5,12.6c-0.9,1-1.9,1.9-2.9,2.9c-1,0.9-2,1.8-2.9,2.7c-2,1.7-3.9,3.4-5.8,5c-3.8,3.3-7.7,6.3-11.3,9.1
					s-7.2,5.4-10.5,7.7c-6.6,4.6-12.3,8.2-16.5,10.3c-1,0.6-2,1-2.8,1.4s-1.5,0.7-2.2,0.9c-1.2,0.4-1.8,0.6-1.8,0.6s0.6-0.3,1.7-0.9
					c0.6-0.3,1.2-0.7,2-1.1c0.8-0.5,1.7-1,2.6-1.7c3.9-2.6,9.2-6.7,15.4-11.7c1.5-1.3,3.2-2.6,4.8-4c1.7-1.4,3.4-2.8,5.1-4.3
					c3.5-3,7.1-6.2,10.8-9.5s7.5-6.9,11-10.5c3.6-3.9,7.2-7.7,9.9-12c2.7-4.2,4.3-9,3.4-13.4c-0.5-2.2-1.4-4.3-2.8-6.2
					c-0.7-0.9-1.4-1.8-2.3-2.7c-0.4-0.4-0.8-0.8-1.3-1.2l-0.6-0.6l-0.7-0.6c-0.5-0.4-1-0.8-1.4-1.1c-0.5-0.4-1.1-0.8-1.5-1.3
					c-1-0.8-1.9-1.7-2.8-2.7c-1.7-1.8-3.3-3.7-4.7-5.5c-2.9-3.7-5.3-7.4-7.4-10.8c-2.1-3.4-3.9-6.7-5.4-9.6
					c-1.5-2.9-2.7-5.5-3.7-7.7s-1.6-3.9-1.9-5.1c-0.2-0.6-0.3-1.1-0.3-1.4C854.7,436.6,854.8,436.5,854.7,436.5z"/>
			</g>
		</g>
		<g>
			<g>
				<path class="st3" d="M742.3,506.7c0,0,1,0.6,2.7,1.8s4.1,2.8,7,4.9c1.4,1,3,2.1,4.6,3.4c1.6,1.2,3.3,2.6,5,4.1
					c0.8,0.8,1.7,1.5,2.5,2.4c0.4,0.4,0.8,0.8,1.2,1.3s0.8,0.9,1.2,1.4c1.5,1.9,2.9,4.1,3.7,6.5c0.5,1.2,0.7,2.4,1,3.7
					c0.1,0.6,0.2,1.2,0.2,1.9c0.1,0.6,0.2,1.2,0.1,1.9c0,0.6,0,1.2,0,1.8s-0.1,1.2-0.1,1.8c-0.1,0.6-0.1,1.2-0.2,1.8
					c-0.1,0.7-0.2,1.1-0.3,1.7c-0.2,1.1-0.5,2.2-0.8,3.2c-0.3,1.1-0.6,2.1-0.9,3c-0.6,1.9-1.3,3.7-1.9,5.4c-1.3,3.3-2.4,6-3.2,7.9
					c-0.7,1.9-1.2,3-1.2,3s0.2-1.2,0.5-3.2c0.4-2,1-4.9,1.9-8.3c0.4-1.7,0.9-3.5,1.3-5.5c0.2-1,0.5-2,0.6-3c0.2-1,0.4-2,0.5-3.1
					c0.1-0.5,0.2-1.2,0.2-1.6c0-0.5,0.1-1.1,0.1-1.6c0.1-1.1,0-2.2,0-3.2c0-0.5-0.1-1.1-0.1-1.6c-0.1-0.5-0.1-1.1-0.2-1.6
					c-0.3-1-0.5-2.1-0.9-3.1c-0.7-2-1.8-3.9-3.1-5.6c-0.7-0.9-1.3-1.7-2.1-2.5c-0.7-0.8-1.5-1.6-2.2-2.4c-1.5-1.5-3-3-4.5-4.3
					c-1.5-1.4-2.9-2.7-4.2-3.9c-2.6-2.4-4.7-4.5-6.1-5.9C743.1,507.5,742.3,506.7,742.3,506.7z"/>
			</g>
		</g>
		<g>
			<path class="st3" d="M786.1,569c-4.2-4.8-15.8-15.9-25.2-2.7c-3.9,5.5-8.5,24.2-1.7,26.6c0,0,2.6,0.6,5.6-2.2
				C771.9,584,793.4,577.5,786.1,569z"/>
		</g>
		<g>
			<path class="st3" d="M803.2,565.6c-5.1-5.6-19.3-18.4-29.9-3.9c-4.4,6-9.2,26.8-1.1,29.7c0,0,3.1,0.8,6.5-2.3
				C786.8,581.9,812.1,575.4,803.2,565.6z"/>
		</g>
		<g>
			<path class="st3" d="M832.9,551.3c-5.7-6.2-21.6-20.4-33.4-4.5c-4.9,6.6-10.2,29.7-1.1,32.9c0,0,3.4,0.9,7.3-2.5
				C814.7,569.2,842.9,562.1,832.9,551.3z"/>
		</g>
		<g class="st1">
			<path class="st3" d="M856.5,441.3c-13.6,54.8-85.5,104.5-86.9,103.8c1-8.1-2.2-13.8-3.7-16.9c-1.4-2.3-14.3-12.6-16.4-14.6
				c-1.4-1.3-15.5-10.6-14.8-15.3c4-27.6,58.7-70.2,108.8-75.8c4.6-0.5,13.1,17.9,12.8,18.6"/>
		</g>
	</g>
	<g>
		<g>
			<g>
				<path class="st5" d="M469.3,189.5c0,0,79.2-110.3,126-68c10.4,9.4,27.7,31.7,37.2,42c28.8,31.3,47.2,12.1,83.6,12.5
					c62.2,0.7,100.1,24.3,164,61.9c6.7,3.9,30.3,18.5,76.8,24.9c31.6,4.3,70.5,6.8,118.7-2.1c0,0,87.4-17.4,120.8-12.1
					c17.2,2.7,69.4,13.1,64,26.5c-2.9,4.3-14.1,8.1-27.2,12.7c-15.7,5.6-34.9,13.2-45.2,17.2c0,0-65.6,26.6-78,34.9
					c0,0-35.6,23.2-85.2,36.8c0,0-64.4,19.2-105.6,36.8l-70.4,30.8l-6.8,6.4c0,0-16,41.4-83.1,50.8c-30.8,4.3-69.4,1.6-141.3-40
					c0,0-53.6-30-76-86c0,0-27.2-70.4-36.4-98.8C496.1,248.3,482.1,209.9,469.3,189.5z"/>
			</g>
			<g>
				<path class="st6" d="M1165.9,287.1c-4.2,1.2-43.2,6-59.4,28.2s-43.2,26.4-43.2,26.4c-12.6,0.6-30.5,9.9-38.4,16.8
					c-14.8,12.9-30.6,16.2-37.2,15.6c-6.6-0.6-21-3.6-35.4,12s-39,18.6-40.8,18.6s-30.9,1.8-41,9.3c-26.3,19.6-109.2,51.5-164,36.9
					c-51.4-13.6-44-43-102-68.2c-18.6-8.1-22-20.4-32-37.2c-7.6-12.8-7.6-49.6-7.6-49.6s1.2-32.8-11.6-45.9
					c-12.8-13.1-16.8-28.5-18-40.9s-20.6-39.6-20.6-39.6c-36.1-36.8-45.4,20-45.4,20s15.6,22.4,45.4,117.6
					c4.7,14.9,8,27.6,12.3,37.6c19.8,45.7,25.4,53.7,41.3,74.5c9,11.8,21.1,22.5,34,31.9c34.3,24.9,73.9,40,73.9,40
					c52.2,21.2,124.7,18.2,165.8-40.4c4.3-6.2,47.2-24.1,68.5-33.4c21.4-9.4,116.5-41.2,116.5-41.2c36.6-9.8,76.6-31.2,100.3-45.3
					c8.8-3.8,20.9-9.4,33.3-14.7c30-12.7,64.9-25.4,81.3-31.4c6-2.2,9.3-3.7,9.3-3.7C1223.8,275.3,1170.1,285.9,1165.9,287.1z"/>
			</g>
			<g class="st1">
				<path class="st3" d="M595.3,121.5c3.2,1.9,25.7,29.5,36.9,41.1c23.7,24.6,36.6,18.8,60.1,15.4c4.7-0.7,9.5-1.3,14.3-1.7
					c18.7-1.5,37.9-0.3,58.8,5.8c3.4,1,6.5,1.8,9.4,2.7c28.3,8.7,33.7,13.1,49,20.9c12.7,6.4,30.2,15.7,46.6,26.2
					c11.1,7.1,19.1,11.5,26.7,14.8c9.3,4.1,17.9,6.7,30.6,10.5c1,0.2,6,1.4,12.1,2.7c6.8,1.4,13.6,2.5,20,3.2
					c16.4,1.8,37.4,3.8,50.4,3.6c25-0.4,40.6-1.7,59-4.8c11.4-1.9,32.6-6.2,49.8-8.8c31.1-4.7,65.1-7.5,81.1-4
					c-0.8,1.1-14.2,10.1-31.1,9.5c-9.2-0.3-14,11.4-22.9,11.4c-5.6,0-7.8-12.8-18.6-2c-3.6,3.6,3.6,11.4-1.9,17.1
					c-5.8,6-17.4,4.9-19.4-5.6c-0.7-3.8-1.3-14.6-5.2-14.2c-15,1.2-0.6,30-13.3,34.3c-7.4,2.5-4.5-14.7-8.6-20.9
					c-6.9-10.5-14.4-2.2-13.8,9.6c0.7,14.2-4.5,41.8-12.3,10.5c-1.6-6.5-5.8-24.5-13.2-25.1c-8.4-0.7-2.3,15-2.1,28.4
					c0.3,20.1-5.9,31.2-8.1,26.1c-3.7-8.6-7.5-34.5-12.3-45c-2.9-6.4-1.2-12-8.4-11.7c-8.9,0.4-6.6,17.8-6.9,20.1
					c-1.2,10,2.6,7.6,1.8,16.5c-0.5,5.2,0.2,10.8-4.5,11.4c-6.9,0.9-9-13.3-12.6-24c-2.2-6.6-4.2-23.7-11.8-22.6
					c-11.9,1.7,4.5,26.5,5.8,39.4s8.1,35-5,37.1c-13.7,2.2-11-22.1-13-34.7c-2-12.6-5.8-14.2-8.4-18c-3.4-5,1-10.8-3-17.4
					c-1.1-1.8-4.1-4.9-7.4-5.8c-13.4-3.6,1.4,21-0.8,30.6c-2.2,9.4-3.6,18.2-7.5,20.3c-3.2,1.7-1.1,11.5-7.7,12.7
					c-5.6-0.8-7.8-12.4-7.3-20.1c1.4-20.4-3.7-15.6-7.7-32.3c-0.7-2.8-7.3-12-10-10.7c-11.8,5.5,0.8,22.3-0.6,36.2
					c-0.7,7.4-2,19.8-7.4,21c-4.9,1.1-4.7,11.9-9,9.6c-5.1-2.6-5.5-14.1-4-19.8c2-7.6,4.6-9.6,4-19.2c-0.6-9.4-2-11-2.4-20.8
					c-0.2-6.1-3.5-21.1-7.4-14.4c-2.7,4.7-0.1,24.8-1.3,30.6c-2.6,12.2-12.3,19-11.9,24.2c1.2,15.3-4,22.8-8,22.8
					c-6.7,0-3.5-11.5-5.2-17.6c-1.6-5.6-3.2-4.5-7.2-14.6c-2.4-6,2.2-11.6-1.4-22.4c-1.7-5.2-8.4-8.8-9.8-16.6
					c-1.7-9.3,3.4-27.4-6.3-27.8c-4.2-0.2-5,11.6-7.7,18.6c-2,5.1,1.7,11,0.8,17.4c-1.4,9.6-3.5,14.2-7.8,21.1
					c-3.5,5.6-2.7,12-9.6,10.6c-4.9-1-5.5-6.2-8.6-9.8c-6.5-7.3-6.2-17.1-6.9-24.6c-0.8-7.5-6.9-24.9-6.3-32.1
					c0.7-8.8-4.6-16.4-9.2-18.9c-13-8.3-20.7,4.4-20.8,13.9c0,7.5,3.7,16.9,5.6,23.9c1.2,4.3,7.3,42.9-9.6,48.7
					c-13.6,4.6-17.4-4.8-20.3-15c-3.9-13.4-2.9-26.3-5.7-39.3c-1.8-8.2-5.4-15.7-8.2-24.3c-2.5-7.9,2.2-20.7-6.3-26.1
					c-8.8-5.6-18.6,3.6-17.7,13c0.8,8.5,9,13,8.2,23.7c-0.3,4.2-5.3,10.3-5.9,13.4c-0.8,4.5,0.3,9.8,0.1,14.5
					c-0.4,9.2-2.5,20-5.4,28.6c-3.8,11.2-9.5,14-9.6,0.2c0-7.9,2.1-19,4.1-25.2c2.7-8.4-0.9-13.6-4.7-20.4
					c-5.7-10.1-3.9-11.5-3.3-22.8c0.6-9.4-2.7-13.8-4.7-21.3c-2.1-7.7,5.2-19.2-6-23.7c-14.4-5.8-21.8,17.8-27.9,28.1
					c-8.3,14.1-24.3,37.8-39.5,19.2c-17.1-20.9,8.3-26.9,24-39.3c9-7.1,16.5-13.7,12.7-24.1c-2.2-6.1-12.2-17.5-20.2-15.9
					c-7,1.4-14.1,14.7-18.8,19.5c-6.4,6.4-13.4,13.7-23,15.2c2.7-12,15.5-21.8,20.3-33.4c3.1-7.6,5.8-20.8,5.2-26.4
					C591.4,126.1,593.3,120.3,595.3,121.5z"/>
			</g>
		</g>
		<g class="st1">
			<path class="st3" d="M595.3,121.5c1.6,0.5,14.9,15.5,14.8,15.8c-18.9,37.8-90.5,69.9-128.9,76.3c-2.8-6.6-10.9-24.2-15.9-30.8
				C464.7,181.5,576.9,137.9,595.3,121.5z"/>
		</g>
	</g>
	<g>
		<g>
			<path class="st0" d="M596.2,299.4c0,0,25.5-2.1,21,56.1c0,0-2.4,48.6-36.6,57.6L544,426.3c0,0-7.5,2.7-12.9,11.4
				c-2.6,4.1-19.6,8.9-19.6-4.8c0-11.1,4.5-22.3,16.5-31.5c0,0,32.2-22.1,35.1-37.6C566.7,345.3,573.1,299.4,596.2,299.4z"/>
		</g>
		<g>
			<g>
				<g class="st1">
					<path class="st3" d="M526.3,443.3l1.3-1.4c0.4-0.5,0.8-1,1.2-1.5c0.4-0.5,0.8-1,1.1-1.5l1.1-1.6c0.7-1.1,1.4-2.1,2.2-3.2
						c0.4-0.5,0.8-1,1.2-1.5s0.8-1,1.3-1.4c0.5-0.5,0.9-0.9,1.4-1.3c0.5-0.4,1-0.8,1.5-1.2s1.1-0.8,1.6-1.1c0.6-0.3,1.1-0.7,1.7-1
						l1.7-0.9l1.8-0.7c1.2-0.5,2.4-0.8,3.7-1.3l0,0l19.5-7.4c3.3-1.2,6.5-2.5,9.8-3.7l9.8-3.6c3.1-1.2,6-3,8.6-5.2
						c2.6-2.2,4.9-4.7,6.8-7.5c1.9-2.8,3.5-5.8,4.9-8.9c0.7-1.5,1.2-3.2,1.8-4.8c0.5-1.7,1-3.3,1.4-5c1.7-6.7,3.2-13.5,4.1-20.4
						c0.5-3.4,0.8-6.9,1-10.3c0.2-3.4,0.3-6.9,0.1-10.3c-0.3-6.9-0.8-13.9-2.8-20.5c-1-3.3-2.4-6.5-4.5-9.2c-2.1-2.8-4.8-5-8-6.5
						c3.3,1.2,6.2,3.4,8.4,6.1c2.2,2.7,3.8,5.9,5,9.2s1.9,6.8,2.4,10.3s0.8,7,1.1,10.4c0.5,7,0.2,14.1-0.7,21
						c-0.9,7-2.3,13.8-4,20.6c-0.4,1.7-0.9,3.4-1.4,5.1c-0.6,1.7-1.1,3.4-1.8,5c-0.6,1.7-1.5,3.3-2.3,4.8l-1.4,2.3
						c-0.5,0.8-1,1.5-1.5,2.2c-4.1,5.8-9.8,10.7-16.5,13.3l-9.8,3.6c-3.3,1.2-6.6,2.4-9.8,3.5l-19.7,6.9l0,0l0,0
						c-1.2,0.4-2.4,0.7-3.6,1.1l-1.8,0.7l-1.7,0.8c-0.6,0.2-1.1,0.6-1.7,0.9c-0.6,0.3-1.1,0.6-1.6,1c-0.5,0.3-1,0.7-1.5,1.1
						c-0.5,0.4-1,0.8-1.4,1.2c-0.5,0.4-0.9,0.9-1.3,1.3c-0.4,0.5-0.8,1-1.2,1.4c-0.8,1-1.5,2-2.3,3.1c-0.7,1-1.5,2-2.4,3
						c-0.4,0.5-0.9,0.9-1.3,1.4L526.3,443.3z"/>
				</g>
			</g>
		</g>
		<g>
			<g>
				<g class="st1">
					<path class="st3" d="M510.6,434.8c0-3,0.3-6,1-9c0.6-3,1.5-5.9,2.7-8.7c1.2-2.8,2.7-5.5,4.6-7.9c0.4-0.6,1-1.2,1.4-1.8
						c0.5-0.6,1-1.2,1.6-1.7c0.5-0.6,1.1-1.1,1.7-1.6s1.2-1,1.8-1.5l0,0c2.1-1.9,4.3-3.8,6.5-5.6l6.6-5.5c4.4-3.7,8.7-7.4,12.8-11.3
						c2-2,4.1-3.9,5.7-6.1c1.6-2.2,2.9-4.6,3.9-7.2c2-5.2,3-10.8,3.9-16.4l0.6-4.2c0.2-1.4,0.5-2.9,0.8-4.3c0.6-2.8,1.3-5.6,2.1-8.4
						c1.6-5.5,3.6-11,6.2-16.2c0.7-1.3,1.3-2.6,2.1-3.8s1.5-2.4,2.3-3.6c1.6-2.4,3.4-4.7,5.7-6.6c2.2-1.9,4.9-3.3,7.8-3.8
						s5.8-0.2,8.6,0.7c-2.8-0.6-5.7-0.8-8.4-0.1c-2.8,0.6-5.2,2.1-7.3,4c-2,1.9-3.7,4.2-5.2,6.6c-0.7,1.2-1.5,2.4-2.2,3.7
						c-0.7,1.2-1.3,2.5-1.9,3.8c-2.4,5.1-4.2,10.6-5.7,16c-0.8,2.7-1.4,5.5-1.9,8.3c-0.3,1.4-0.5,2.8-0.7,4.2l-0.6,4.3
						c-0.8,5.7-1.8,11.4-3.9,17c-1.1,2.8-2.4,5.4-4.3,7.8l-0.7,0.9l-0.7,0.8c-0.5,0.6-1,1.1-1.5,1.6c-1,1-2,2.1-3.1,3
						c-4.2,4-8.7,7.6-13.1,11.2c-4.5,3.6-9,7.1-13.4,10.7l0,0l0,0c-0.6,0.5-1.2,0.9-1.7,1.4c-0.6,0.5-1.1,1-1.6,1.5s-1,1-1.6,1.6
						c-0.5,0.6-1,1.1-1.4,1.7c-1.9,2.3-3.4,4.8-4.7,7.5s-2.3,5.5-3.1,8.4C511.3,428.8,510.8,431.8,510.6,434.8z"/>
				</g>
			</g>
		</g>
		<g>
			<path class="st3" d="M512.1,445.5c-4.5-9.4-1.3-21.4,0.1-20.3c0.8,0.6,2.2,11.7,13.6,11.6c0,0,8.8,0.2,1.1,3
				C516.6,443.4,517.5,456.7,512.1,445.5z"/>
		</g>
		<g>
			<path class="st3" d="M519,447.4c-4.1-4.5-5.2-14.1-3.1-14.5c1.8-0.4,0.3,4,15.2,4.1c1,0,1.1,2.7-2.8,6
				C521.5,448.9,525.8,454.9,519,447.4z"/>
		</g>
	</g>
	<g>
		<g>
			<path class="st0" d="M811.3,316.3c-24.1-6.5-61.4-9.4-112.3,20.1c-22.4,12.9-51.2,37.7-70.4,91.5c0,0-14,53.6-23.2,70.7
				c-4.1,7.6-9.6,13.3-32,12.5c0,0-9.5,4,3.7,17.8c0,0,21.9,39.6,28.5,45c6.6,5.4,50.4,30,68.7,30.9c0,0,16.1,3.5,20.4-15.3
				c3-13.2,17.2-33.1,20.9-38.3c7.2-10.1,27.1-40.3,56.3-50.9c16.5-6,49.4-14.1,70.2-49.6C842.1,450.7,890.1,337.5,811.3,316.3z"/>
		</g>
		<g>
			<g>
				<g class="st1">
					<path class="st3" d="M562.1,512.3c0,0,1.5-0.2,4.3-0.4c2.8-0.2,7-0.4,12.3-0.6c2.6-0.2,5.5-0.4,8.6-1s6.4-1.7,9.3-3.7
						c3-2,5.5-4.9,7.3-8.5s3.3-7.7,4.8-11.9c6.1-17,12.3-37.2,19.1-58.9c1.8-5.5,3.7-10.9,6-16.3c2.3-5.4,4.8-10.8,7.7-16.1
						c5.7-10.6,12.6-20.8,20.6-30s17.2-17.5,27.1-24.3c4.9-3.4,10.1-6.5,15.3-9.2l2-1l1-0.5l0.9-0.5c1.3-0.7,2.6-1.4,3.9-2
						c2.6-1.3,5.3-2.5,7.9-3.6c10.5-4.4,21.2-7.6,31.5-9.6s20.2-3,29.3-2.8c9.1,0.1,17.5,1.2,24.7,3s13.3,4.1,18,6.4
						c4.8,2.3,8.2,4.7,10.4,6.5c1.1,0.9,1.9,1.6,2.4,2.1s0.8,0.8,0.8,0.8s-0.3-0.2-0.8-0.7c-0.6-0.5-1.4-1.2-2.5-2
						c-2.3-1.7-5.8-3.9-10.6-6s-10.9-4.2-18-5.7c-3.6-0.7-7.4-1.4-11.5-1.7c-4.1-0.4-8.4-0.6-12.9-0.6c-9,0.1-18.7,1.2-28.8,3.4
						s-20.4,5.6-30.8,10c-2.6,1.1-5.1,2.3-7.7,3.6c-1.3,0.6-2.5,1.3-3.8,2l-1,0.6l-1,0.5l-1.9,1c-5.1,2.7-10.1,5.8-14.9,9.1
						c-9.7,6.7-18.6,14.8-26.4,23.8c-7.9,9-14.6,18.9-20.3,29.3c-5.6,10.3-10.2,21.1-13.7,31.7c-3.5,10.8-6.9,21.2-10.3,31
						s-6.6,19.1-9.9,27.6c-1.7,4.2-3.2,8.3-5.2,12.1c-2,3.7-4.9,6.8-8.1,8.8s-6.7,3-9.9,3.5c-3.2,0.5-6.1,0.6-8.8,0.7
						c-5.3,0.1-9.4,0-12.3,0.1C563.7,512.1,562.1,512.3,562.1,512.3z"/>
				</g>
			</g>
		</g>
		<g>
			<path class="st3" d="M574.9,533.4c2.8-5.7,8.3-20.8-7.5-24.2c-6.5-1.4-25.6,1.8-25,9c0,0,0.5,2.6,4.3,4.3
				C555.5,526.3,570,543.5,574.9,533.4z"/>
		</g>
		<g>
			<path class="st3" d="M584.8,547.7c3.1-6.9,9.2-25-8.2-29c-7.2-1.7-28.3,2.2-27.7,10.8c0,0,0.5,3.1,4.7,5.1
				C563.4,539.1,579.4,559.8,584.8,547.7z"/>
		</g>
		<g>
			<g>
				<g class="st1">
					<path class="st3" d="M591.9,562.5c2.1,1.7,4.2,3.4,6.4,5s4.4,3.1,6.6,4.7c2.2,1.5,4.4,3,6.7,4.5c2.2,1.5,4.6,2.9,6.9,4.2
						c2.3,1.4,4.6,2.7,7,4c2.3,1.3,4.7,2.5,7.1,3.7c2.4,1.2,4.8,2.3,7.3,3.4c2.5,1,4.9,2.2,7.4,3.1l7.5,3c2.5,1,5,1.9,7.5,2.8
						c2.5,0.8,5.1,1.6,7.6,2.1s5.1,0.9,7.6,0.8c2.5-0.1,4.9-0.6,7-1.8c2.1-1.1,3.8-2.9,5.3-4.9c1.4-2,2.6-4.3,3.5-6.7
						s1.7-4.9,2.3-7.5v-0.1l0.1-0.1c2.7-6.4,6-12.5,9.5-18.4c3.6-5.9,7.4-11.6,11.4-17.1c4-5.6,8.2-11,12.7-16.2
						c4.4-5.2,9-10.3,14-15.2c1.2-1.2,2.5-2.3,3.8-3.6c1.2-1.1,2.7-2.3,4.1-3.3c2.9-2.1,5.9-3.9,9-5.5c6.2-3.2,12.7-5.7,19.1-8
						c6.4-2.4,12.7-4.6,18.7-7.6c6-2.9,11.9-6.2,17.3-10c5.4-3.8,10.5-8.2,14.8-13.2c4.4-5,8-10.5,10.9-16.5
						c2.8-6.1,5.2-12.4,7.2-18.8c2-6.4,3.6-13,4.9-19.6c1.3-6.6,2.1-13.3,2.5-20.1c0.3-6.7,0.3-13.5-0.5-20.2
						c-0.2-1.7-0.4-3.4-0.7-5l-0.4-2.5l-0.5-2.5c-0.3-1.7-0.8-3.3-1.2-4.9c-0.1-0.4-0.2-0.9-0.3-1.2l-0.4-1.2l-0.9-2.4
						c-1.3-3.1-2.7-6.2-4.4-9.2c-1.7-2.9-3.5-5.8-6-8.2c2.6,2.2,4.6,5,6.4,7.9c1.8,2.9,3.4,5.9,4.8,9l1,2.3l0.5,1.2
						c0.2,0.5,0.3,0.8,0.4,1.2c0.5,1.6,1,3.3,1.4,4.9l0.6,2.5l0.5,2.5c0.4,1.7,0.6,3.4,0.9,5.1c1.1,6.8,1.4,13.7,1.3,20.5
						c-0.2,6.9-0.9,13.7-2,20.5s-2.6,13.5-4.6,20.1c-1.9,6.6-4.2,13.1-7,19.4c-2.8,6.4-6.7,12.3-11.2,17.6s-9.8,10-15.4,14
						c-5.6,4.1-11.7,7.5-17.9,10.5c-3.1,1.5-6.3,2.9-9.5,4.2s-6.4,2.4-9.6,3.6c-6.3,2.4-12.6,4.8-18.5,7.9c-2.9,1.5-5.8,3.2-8.4,5.1
						c-1.3,1-2.5,1.9-3.8,3c-1.2,1.1-2.5,2.2-3.6,3.4c-4.8,4.6-9.4,9.6-13.7,14.8c-4.4,5.1-8.5,10.5-12.5,15.9s-7.8,11-11.4,16.7
						c-3.5,5.7-6.8,11.6-9.4,17.7l0.1-0.3c-0.7,2.7-1.6,5.3-2.6,7.9c-1.1,2.6-2.4,5.1-4.1,7.5c-1.7,2.3-3.9,4.5-6.6,5.8
						c-2.7,1.4-5.7,2-8.6,2c-2.9,0-5.7-0.4-8.4-1.1c-2.7-0.7-5.3-1.5-7.9-2.5c-2.6-0.9-5.1-2-7.6-3l-7.4-3.2c-2.5-1-4.9-2.3-7.4-3.4
						c-2.4-1.2-4.8-2.5-7.2-3.7c-2.4-1.3-4.7-2.6-7-4s-4.6-2.8-6.9-4.3c-2.3-1.5-4.5-3-6.7-4.5c-2.2-1.5-4.4-3.1-6.6-4.7
						C600,569.5,595.9,566.1,591.9,562.5z"/>
				</g>
			</g>
		</g>
		<g>
			<path class="st3" d="M609.7,569.4c3.4-7.7,10.2-27.9-9.1-32.4c-8-1.9-31.3,2.4-30.6,12c0,0,0.6,3.5,5.2,5.7
				C586,559.8,603.7,582.9,609.7,569.4z"/>
		</g>
	</g>
	<g>
		<g>
			<path class="st5" d="M365.7,65.8c-14.1,1.6-41.7,7.9-55.7,10c-15.2,2.3-40.9,3.8-57.7-21.2c0,0-20-30.5,13.3-99.4
				c13.9-28.7,57.3-65.9,141-39.9c11.4,3.5,10.6,0.9,26.6-1.7c11.6-1.9,29.8-2.7,52.5,2.4c7.3,1.7,14.7,0,21.9-0.8
				c10.5-1.2,26.2,4,41.8,20c0,0,73.7,35.8,62.6,141.4c0,0-3.8,77.8-113.3,105.3l-60.3,24.3c0,0-54.3,25.3-87.3,20.1
				c0,0-38-4.6-53.7-24.3c0,0-13.4-16.8-7.7-30.3c5.8-13.7,18.6-21,47.2-36.1c10-5.3,32.6-17.7,39-21.5
				C389.5,106.3,377.4,64.5,365.7,65.8z"/>
		</g>
		<g class="st7">
			<path class="st4" d="M255.5,30c0,0,8.4-13.3,55.5-3.2c16.7,3.6,48.2,12.2,72,11.4c29.8-0.9,42.5-9.4,67.1-12.5
				c18.9-2.4,42.5-8.6,73.7,8.5c5.1,2.8,18.7,13.2,18.7,13.2s-39.5-12.7-64.4-9.2c0,0-4.8-8.9-35.2-3.9c-6.6,1.1-14.1,3.1-23.6,5.4
				c-7.8,2-29.3,6.4-41.6,4.5c-8-1.2-17.9-2.5-30.2-5.3c-8.2-1.8-22.4-5.2-34.9-8.8c-6.6-1.9-12.1-3-14.2-3.4
				C287.7,24.8,265.4,21.9,255.5,30z"/>
		</g>
		<g>
			<path class="st8" d="M268.7,29.8c19.3-8.1,38.9,5.7,75.8,14.1c18.6,4.2,41.3,13.5,76.3,5c12.6-3.1,40.3-11.2,50.9-10.8
				c9.3,0.4,27.8,3.9,36.9,4.4c9.1,0.5,31.3,4.8,31.3,4.8s-22.7,4.8-33.2,28.4c0,0-8.8,24-29.1,20.9c0,0-28.2-5.7-50.5,12.3
				c0,0-40.7,31.3-66.8,41.4c-21.8,8.4-23.3,8.8-34.7,12.3c-15.8,4.9-25.2,6.3-15.8-1.1c2.9-2.3,16.8-12.7,40.1-26.2
				c8.1-4.7,25.3-12.7,32.1-19c0,0,12.4-6.5,6.2-30.9c-1.8-7.2-8.2-27.5-19-26c-11.1,1.5-58.5,10.5-79.6,5.9
				c-5.6-1.2-15.9-4.9-20.3-9.1C265.4,52.2,256.7,34.8,268.7,29.8z"/>
		</g>
		<g>
			<path class="st9" d="M478.5,38.7c0,0-5.9-10.2-35.6-4.3c-14.4,2.9-43.3,10.7-57.8,10.2c-20.2-0.7-63.8-11.7-72.5-14.5
				c-12.9-4.1-37.7-8.7-52-3.2c-4.4,1.7-12.5,7.6-11.1,16.6c1.5,10,8,19.2,14.1,22.2c0,0,12.5,18.5,66.6,7.9c0,0,33.4-6.5,50.1-10.9
				c0.1,0-1.8-2-2.6-2.3c-5.2-1.8-7.8-2.2-24.1,1c-16.1,3.2-51.7,7-65.7,3c-7.2-2.1-21.5-6.2-24-17.9c-0.8-3.9-2.3-10.9,10.8-12.4
				c11.7-1.4,20.4-2.7,47.3,5.9c16.8,5.3,41.8,15.2,69.5,12.7c15.4-1.4,38.9-10.8,58.8-12.2C458,40.1,475,38,478.5,38.7z"/>
		</g>
		<g>
			<path class="st10" d="M356.4,63.3c0,0-2.3,4.5,3.7,12.5c0,0,7.6,9.5,12.7,5.3c1.2-1,1.9-2.9,1.1-6.6c0,0-0.7-4.4,1.3-8.6
				c0.9-1.9-0.5-4.9-9.2-5.2C366.1,60.7,356.8,60.9,356.4,63.3z"/>
			<path class="st11" d="M369.8,82.3c-0.2,0-0.4,0-0.6,0c-4.5-0.5-9.1-6.1-9.3-6.4c-5.9-7.8-3.9-12.3-3.7-12.6
				c0.4-2.3,8.1-2.6,9.7-2.7l0,0.1l0-0.1l0.1,0c6.1,0.2,8.3,1.8,9.1,3c0.5,0.7,0.5,1.6,0.1,2.4c-2,4.1-1.3,8.5-1.3,8.5
				c0.7,3.3,0.3,5.5-1.1,6.7C372,81.9,371,82.3,369.8,82.3z M366,60.8L366,60.8c-3.4,0.1-9.2,0.7-9.5,2.5l0,0c0,0-2.2,4.5,3.7,12.4
				c0,0.1,4.7,5.8,9.1,6.3c1.3,0.1,2.4-0.2,3.4-1c1.4-1.2,1.7-3.3,1.1-6.5c0-0.1-0.7-4.5,1.3-8.7c0.3-0.7,0.3-1.5-0.1-2.1
				C374.4,62.7,372.4,61,366,60.8z"/>
		</g>
		<g>
			<path class="st10" d="M330.8,69c0,0-2.2,4.6,6.5,15c0,0,10.8,12.3,16.8,6.3c1.4-1.4,2.1-4.1,0.7-9c0,0-2.1-6.1,0-11.9
				c0.9-2.6-1.6-6-12.8-4.8C338.6,64.9,331,65.7,330.8,69z"/>
			<path class="st11" d="M350.1,92.1c-0.1,0-0.1,0-0.2,0c-5.8-0.2-12.6-7.9-12.7-8c-8.4-10.1-6.7-14.7-6.5-15.1
				c0.2-3.5,8.6-4.3,11.3-4.5c3.7-0.4,10.2-0.6,12.4,2.1c0.7,0.8,0.8,1.8,0.5,2.8c-2.1,5.7,0,11.8,0,11.8c1.2,4.3,1,7.4-0.7,9.1
				C353.1,91.5,351.7,92.1,350.1,92.1z M346.3,64.5c-1.2,0-2.6,0.1-4.3,0.2c-2.7,0.2-10.9,1-11.1,4.3l0,0c0,0-2,4.7,6.5,14.9
				c0.1,0.1,6.8,7.7,12.5,7.9c1.6,0,3-0.5,4.1-1.6c1.6-1.6,1.9-4.7,0.7-8.9c0-0.1-2.1-6.2,0-12c0.3-0.9,0.2-1.8-0.4-2.6
				C353.5,65.8,351.5,64.5,346.3,64.5z"/>
		</g>
		<g>
			<path class="st10" d="M303.9,72.1c0,0-2.1,8.7,9.4,20.9c0,0,11,11,13.5,5.6c1.3-2.8-1.6-6.9-0.8-10.8c0.8-4.2,5.5-10.7,1.5-16.9
				c0,0-3.5-5.2-11.3-4.4C316.2,66.6,305.4,66.7,303.9,72.1z"/>
			<path class="st11" d="M324.5,100.2c-4.1,0-11-6.8-11.3-7.1c-11.4-12.1-9.5-20.9-9.4-21l0,0c0.6-2.2,3.2-5,12-5.6
				c0.1,0,0.2,0,0.3,0v0l0.1,0c7.8-0.8,11.4,4.4,11.4,4.5c3,4.6,1.2,9.4-0.3,13.3c-0.5,1.3-1,2.6-1.2,3.7c-0.4,1.9,0.1,3.8,0.5,5.6
				c0.5,1.9,0.9,3.8,0.2,5.2c-0.4,0.9-1,1.4-1.9,1.5C324.9,100.2,324.7,100.2,324.5,100.2z M304,72.1c0,0.2-1.9,8.8,9.4,20.8
				c0.1,0.1,7.8,7.7,11.6,7c0.8-0.1,1.3-0.6,1.7-1.4c0.7-1.4,0.2-3.2-0.3-5.1c-0.5-1.9-0.9-3.8-0.5-5.7c0.2-1.1,0.7-2.4,1.2-3.7
				c1.4-3.8,3.2-8.5,0.3-13.1c0,0-3.5-5.1-11.2-4.3c-0.1,0-0.2,0-0.5,0C307.1,67.3,304.6,70,304,72.1z"/>
		</g>
		<g>
			<path class="st12" d="M477.7,38.6c3.3,1.1,12.9,16.1,20.9,50.7c0,0-7.5,8.8-21,7.1c-7.5-0.9-19.4-3.3-35.9,5.6
				c-4.3,2.3-12,8-16.9,8.9c-8.7,1.7-19.2-0.2-25.3-4.1c-8.7-5.6-13.5-30.7-15.5-39.1c0,0-4.3-14.4,6-16
				C393.3,51.2,458.8,32.5,477.7,38.6z"/>
		</g>
		<g>
			<path class="st10" d="M421.5,72.3c-2.2,1-19,3.8-26.4-20.5c-1.1-3.7,0.5-6.4,13.1-9.1c0,0,16.2-4.3,15.8,4.2
				c-0.2,3.3-2.2,7-0.5,13.4C424,62.7,428,69.5,421.5,72.3z"/>
			<path class="st11" d="M417.2,73.1c-2.1,0-4.8-0.4-7.7-1.7c-6.6-3-11.6-9.6-14.6-19.5c-0.5-1.5-0.4-2.7,0.2-3.7
				c1.3-2.2,5.3-3.9,13-5.6c0.4-0.1,10.4-2.7,14.4,0.5c1.1,0.9,1.6,2.2,1.6,3.8c-0.1,1-0.3,2-0.5,3c-0.5,2.6-1.2,5.8,0,10.3
				c0.1,0.4,0.3,1,0.5,1.6c1.1,3.1,2.9,8.2-2.6,10.5C421.1,72.6,419.5,73.1,417.2,73.1z M416.3,41.7c-4,0-8,1.1-8.1,1.1
				c-7.6,1.6-11.5,3.3-12.8,5.4c-0.6,1-0.6,2-0.2,3.5c3,9.9,7.9,16.4,14.5,19.4c5.8,2.6,10.8,1.5,11.8,1l0,0
				c5.2-2.3,3.5-7.2,2.4-10.2c-0.2-0.7-0.4-1.2-0.5-1.7c-1.2-4.6-0.5-7.8,0-10.5c0.2-1,0.4-2,0.5-3c0.1-1.6-0.4-2.8-1.5-3.6
				C421,42.1,418.7,41.7,416.3,41.7z"/>
		</g>
		<g>
			<path class="st10" d="M427.1,41.5c-2.8,2.8,5.2,22.7,19.8,20.2c2.3-0.4,3.3-2.5,2.3-8.3c0,0-0.7-6.6,0.9-12
				C451.2,37.6,436.2,32.4,427.1,41.5z"/>
			<path class="st11" d="M444.4,62c-7.3,0-12.9-5.6-15.8-11.3c-2.1-4.1-2.8-8.1-1.6-9.3l0,0l0,0c6.7-6.7,16.5-5.8,21.1-3.1
				c1.6,1,2.4,2.1,2.1,3.1c-1.6,5.3-0.9,11.9-0.9,12c0.9,5.4,0.2,8-2.4,8.4C446.1,62,445.2,62,444.4,62z M439.8,36.5
				c-4.2,0-8.9,1.4-12.6,5.1l0,0c-1.1,1.1-0.4,5.1,1.7,9.1c3.2,6.2,9.6,12.4,18,10.9c2.5-0.4,3.1-2.9,2.2-8.2
				c0-0.1-0.7-6.7,0.9-12.1c0.3-0.9-0.5-1.9-2-2.9C446,37.3,443,36.5,439.8,36.5z"/>
		</g>
		<g>
			<path class="st10" d="M454.1,36.4c0,0-1.8,10.1,12.1,19.7c3.3,2.3,5.4-0.4,5.3-5.4c-0.2-10.1,4.1-9,3-13.3
				C473.1,32,453.8,31.8,454.1,36.4z"/>
			<path class="st11" d="M468.4,57.1c-0.7,0-1.5-0.3-2.3-0.9c-4-2.7-9.2-7.3-11.3-13.5c-1.2-3.6-0.9-6.1-0.8-6.3
				c-0.1-1.5,1.7-2.6,4.9-3.1c2.9-0.5,6.6-0.4,9.7,0.3c3.5,0.7,5.7,2.1,6.1,3.8c0.5,1.9-0.1,2.8-0.8,4c-1,1.5-2.3,3.6-2.2,9.3
				c0.1,3.1-0.7,5.3-2.1,6.1C469.2,57,468.8,57.1,468.4,57.1z M462.7,33.3c-1.4,0-2.7,0.1-3.8,0.3c-3.1,0.5-4.8,1.5-4.7,2.8l0,0l0,0
				c0,0-0.4,2.5,0.8,6.2c1.2,3.4,4.1,8.4,11.2,13.4c1.2,0.8,2.3,1,3.1,0.6c1.3-0.7,2-2.9,2-5.9c-0.1-5.8,1.2-7.9,2.2-9.5
				c0.8-1.2,1.2-2,0.8-3.8C473.7,34.6,467.9,33.3,462.7,33.3z"/>
		</g>
		<g>
			<path class="st13" d="M477.3,38.4c-0.4-1.3,12.4,13.3,21.3,50.9c2-2.2,8.3-9.3,14.3-22.5c3.6-7.7,15.1-16,29.6-19
				c0,0-26.2-7.7-39.2-9.1C494.7,37.7,477.3,38.4,477.3,38.4z"/>
		</g>
		<g>
			<path class="st3" d="M291.5,172.9c0,0-3.2,12.8,27.7,4.4c25.7-7,37.2-7.5,94.2-50.1c0,0,41.8-30.9,67.9-30.4
				c0,0-10.7-7.3-32.2,1.1c0,0-23.4,8.9-36.5,20.3c0,0-31.8,23-53.8,32.6c0,0-33.1,14-48,15.4c0,0-10.6,2.5,0.3-5.8
				c0,0,30.3-20,42.9-26.8c0,0,28-17.4,36.3-21.7c2-1-7.6,0.3-12.2,1.7c-5.6,1.7-20.4,10.6-20.4,10.6l-20.5,11.5l-19.8,10.4
				c0,0-14,8.8-16.7,11.4C295.8,161.6,291,166,291.5,172.9z"/>
		</g>
		<g>
			<path class="st5" d="M415.3,106.2c-3,0.2-5.6-0.2-10.5,0.9c-8.4,1.9-18.3,5.5-28.2,12c-11.1,7.3-33.8,20.8-45.1,27.8
				c-5.6,3.4-16.5,10.6-21.7,14.5c-4.6,3.5-16.1,13.3,23.3-0.9c14.8-5.3,36.2-11.2,57-26.5c11.5-8.5,40.5-28.5,47.9-31.5
				C438.1,102.3,421.2,105.8,415.3,106.2z"/>
		</g>
		<g>
			<path class="st10" d="M420.3,117.3c-4.8-1.1-6.3-15.5,0-24.7c0,0,5.6-9.5,10.1-0.9c1.8,3.5,8.3,10.1,9,13
				C440.4,109.6,426,118.6,420.3,117.3z"/>
			<path class="st11" d="M421.4,117.5c-0.4,0-0.8,0-1.2-0.1l0,0c-1.3-0.3-2.4-1.5-3.2-3.5c-2.1-5.3-1.5-14.7,3.1-21.4
				c0.1-0.2,2.8-4.6,6-4.6c1.6,0,3.1,1.3,4.4,3.7c0.8,1.5,2.5,3.7,4.2,5.8c2.2,2.7,4.4,5.6,4.8,7.2c0.4,1.8-1.3,3.9-2.8,5.4
				C432.1,114.6,425.2,117.5,421.4,117.5z M420.3,117.2c3.9,0.9,12.1-3.3,16.2-7.3c2-2,3-3.8,2.7-5.2c-0.4-1.6-2.6-4.4-4.8-7.1
				c-1.8-2.2-3.4-4.3-4.2-5.8c-1.2-2.3-2.6-3.5-4.1-3.5c0,0-0.1,0-0.1,0c-3,0-5.6,4.4-5.7,4.4c-4.5,6.6-5.1,16-3.1,21.2
				C418.1,115.7,419.1,116.9,420.3,117.2L420.3,117.2z"/>
		</g>
		<g>
			<path class="st10" d="M397,133.4c-5.3-0.8-9.1-10.9-6.6-21.7c0.7-2.9,3.7-12.3,11.1-3.5c4.8,5.8,10.7,8.2,11.5,11.3
				C414.5,125.9,402.1,134.2,397,133.4z"/>
			<path class="st11" d="M397.7,133.6c-0.3,0-0.5,0-0.8-0.1c-1.6-0.2-3.2-1.4-4.4-3.2c-3-4.4-3.9-11.7-2.3-18.6
				c0.5-1.9,1.9-6.5,4.8-7.2c1.9-0.4,4.1,0.8,6.5,3.6c2.3,2.7,4.8,4.8,6.9,6.4c2.3,1.8,4.2,3.3,4.6,5c0.7,2.8-1.2,5.6-3,7.4
				C406.7,130.6,401.1,133.6,397.7,133.6z M395.9,104.7c-0.2,0-0.5,0-0.7,0.1c-2.8,0.7-4.2,5.1-4.7,7c-1.6,6.9-0.7,14.1,2.2,18.4
				c1.2,1.8,2.7,2.9,4.3,3.1h0c3.2,0.5,9.2-2.6,13-6.6c2.4-2.5,3.4-5.1,2.9-7.2c-0.4-1.6-2.2-3-4.5-4.8c-2.1-1.6-4.7-3.7-6.9-6.4
				C399.4,105.9,397.5,104.7,395.9,104.7z"/>
		</g>
		<g>
			<path class="st10" d="M305.3,159.3c-4.4-0.9-8.1-9.8-6.5-19.2c0.4-2.5,2.4-10.7,9-2.8c4.3,5.2,9.2,7.4,10,10.2
				C319.5,153.1,309.6,160.1,305.3,159.3z"/>
			<path class="st11" d="M306,159.5c-0.3,0-0.5,0-0.7-0.1l0,0c-2.2-0.4-4.3-2.9-5.6-6.5c-1.4-3.8-1.7-8.5-1-12.9
				c0.2-1.3,1.1-5.5,3.5-6.2c1.6-0.4,3.5,0.7,5.7,3.3c2,2.4,4.2,4.2,5.9,5.7c2.1,1.7,3.7,3,4.1,4.6c0.6,2-0.2,4.4-2.3,6.8
				C312.9,157.2,308.7,159.5,306,159.5z M305.3,159.2c2.6,0.5,7.2-1.9,10.1-5.1c2-2.3,2.8-4.6,2.3-6.5c-0.4-1.5-2-2.8-4-4.5
				c-1.8-1.5-3.9-3.3-5.9-5.7c-2.1-2.5-4-3.6-5.4-3.2c-2.3,0.6-3.1,4.7-3.3,6C297.3,149.6,301.1,158.3,305.3,159.2z"/>
		</g>
		<g>
			<path class="st10" d="M293.1,172.2c-3.9-0.9-7.5-9.1-6.6-17.6c0.2-2.3,1.5-9.7,7.6-2.3c4,4.8,8.3,7,9.2,9.5
				C305,166.9,296.8,173.1,293.1,172.2z"/>
			<path class="st11" d="M293.9,172.4c-0.3,0-0.6,0-0.8-0.1c-1.9-0.4-3.9-2.7-5.2-6c-1.4-3.5-1.9-7.8-1.5-11.7
				c0.1-1.1,0.6-4.9,2.6-5.5c1.4-0.4,3.1,0.6,5.2,3.2c1.9,2.2,3.8,3.9,5.4,5.3c1.8,1.6,3.3,2.9,3.8,4.2c0.7,2-0.1,4.4-2.2,6.7
				C299,170.8,296,172.4,293.9,172.4z M289.6,149.2c-0.2,0-0.4,0-0.5,0.1c-2,0.6-2.4,4.5-2.5,5.3c-0.4,3.9,0.1,8.1,1.5,11.6
				c1.3,3.3,3.2,5.4,5,5.9h0c2,0.5,5.5-1.2,7.9-3.8c2-2.2,2.8-4.5,2.1-6.4c-0.5-1.3-1.9-2.5-3.7-4.1c-1.6-1.4-3.6-3.1-5.5-5.3
				C292.3,150.3,290.8,149.2,289.6,149.2z"/>
		</g>
		<g>
			<path class="st10" d="M300.1,179.5c-4.4-0.4-9.5-7.4-8.3-16.4c0.3-2.4,2.1-10.4,8.8-3.4c4.4,4.6,9.3,6.3,10.2,8.8
				C312.6,173.7,304.4,179.9,300.1,179.5z"/>
			<path class="st11" d="M300.5,179.6c-0.1,0-0.3,0-0.4,0l0,0c-1.7-0.2-3.6-1.3-5.1-3.3c-2.7-3.4-3.9-8.3-3.3-13.3
				c0.1-0.9,0.8-5.3,3.4-6.2c1.5-0.5,3.4,0.4,5.7,2.7c2.1,2.2,4.3,3.7,6.1,5c2,1.4,3.6,2.5,4.1,3.9c0.6,1.8,0.1,4-1.6,6.1
				C307.1,177.4,303.2,179.6,300.5,179.6z M295.9,157c-0.3,0-0.5,0-0.8,0.1c-2.4,0.8-3.1,5.1-3.2,6c-0.6,4.9,0.6,9.8,3.2,13.1
				c1.5,1.9,3.3,3,5,3.2h0c2.6,0.2,6.7-2,9.1-5c1.6-2,2.1-4.1,1.5-5.9c-0.5-1.3-2-2.4-4-3.7c-1.8-1.3-4.1-2.8-6.2-5
				C298.7,157.9,297.2,157,295.9,157z"/>
		</g>
		<g>
			<path class="st10" d="M318.3,175c-5.1-0.7-8.8-10.1-6.5-20.3c0.6-2.8,3.4-11.7,10.6-3.5c4.6,5.3,10.2,7.5,11,10.4
				C335,167.6,323.2,175.7,318.3,175z"/>
			<path class="st11" d="M318.9,175.2c-0.2,0-0.4,0-0.6,0c-1.6-0.2-3.1-1.3-4.4-3.1c-2.8-4.1-3.7-10.9-2.2-17.4
				c0.3-1.4,1.5-6.1,4.5-6.9c1.8-0.5,4,0.6,6.3,3.3c2.2,2.5,4.6,4.3,6.5,5.8c2.3,1.7,4.1,3.1,4.5,4.6c0.7,2.6-1,5.2-2.6,6.9
				C327.7,172.2,322.2,175.2,318.9,175.2z M317,147.9c-0.3,0-0.5,0-0.8,0.1c-2.9,0.8-4.1,5.7-4.3,6.7c-1.4,6.4-0.6,13.2,2.2,17.2
				c1.2,1.7,2.7,2.8,4.2,3l0,0c3.1,0.4,9-2.7,12.5-6.6c1.5-1.7,3.2-4.2,2.5-6.7c-0.4-1.5-2.2-2.8-4.4-4.5c-2-1.5-4.4-3.3-6.6-5.8
				C320.4,149.1,318.6,147.9,317,147.9z"/>
		</g>
		<g>
			<path class="st10" d="M322.7,146.3c-4.5-1.7-6.9-12-3.9-21.7c0.8-2.6,4.2-11,9.8-1.3c3.7,6.3,8.5,9.6,8.9,12.7
				C338.4,142.3,327,148,322.7,146.3z"/>
			<path class="st11" d="M324.6,146.7c-0.7,0-1.4-0.1-1.9-0.3c-2.2-0.8-4-3.8-4.8-7.9c-0.8-4.3-0.5-9.4,0.9-13.9
				c0.4-1.3,1.9-5.6,4.6-5.9c1.7-0.2,3.6,1.4,5.4,4.6c1.7,2.9,3.7,5.2,5.3,7.1c1.9,2.2,3.4,3.9,3.6,5.6c0.3,2.4-1,4.9-3.8,7.1
				C331,145.3,327.3,146.7,324.6,146.7z M323.6,118.9c-0.1,0-0.2,0-0.3,0c-2.6,0.3-4.1,4.8-4.4,5.8c-3.1,10-0.4,19.9,3.8,21.5l0,0
				c2.4,1,7.4-0.6,10.9-3.3c2.7-2.1,4-4.6,3.7-6.9c-0.2-1.6-1.7-3.3-3.5-5.5c-1.6-1.9-3.6-4.2-5.3-7.1
				C326.8,120.4,325.1,118.9,323.6,118.9z"/>
		</g>
		<g>
			<path class="st10" d="M343.7,135.2c-4.4-1.1-7.5-10.3-5.3-19.6c0.6-2.5,3.2-10.6,9.3-2.3c4,5.4,8.8,7.9,9.4,10.7
				C358.5,129.8,348,136.2,343.7,135.2z"/>
			<path class="st11" d="M344.7,135.4c-0.4,0-0.7,0-1-0.1l0,0c-4.8-1.2-7.5-11-5.4-19.8c0.4-1.6,1.6-5.5,4-6
				c1.6-0.3,3.5,0.9,5.5,3.6c1.9,2.5,3.9,4.4,5.6,6c2,1.8,3.5,3.3,3.8,4.8c0.5,2-0.4,4.4-2.6,6.6
				C351.8,133.4,347.5,135.4,344.7,135.4z M343.7,135.1c2.6,0.6,7.6-1.6,10.7-4.7c2.1-2.1,3-4.4,2.6-6.3c-0.3-1.5-1.8-2.9-3.8-4.7
				c-1.7-1.5-3.7-3.5-5.6-6c-2-2.7-3.7-3.9-5.2-3.6c-2.4,0.5-3.5,4.6-3.8,5.8C336.3,125.1,339.5,134,343.7,135.1z"/>
		</g>
		<g>
			<path class="st10" d="M364.1,122.5c-4.6-0.2-7.8-8.6-4.9-17.6c1.5-4.5,3.1-9,8.9-0.9c6.1,8.6,9,8.8,8.5,11.2
				C375.6,120.4,368.1,122.7,364.1,122.5z"/>
			<path class="st11" d="M364.6,122.6c-0.2,0-0.3,0-0.5,0c-1.5-0.1-2.8-0.9-3.9-2.5c-2.8-4.1-2.6-10.6-1.1-15.3
				c0.8-2.4,1.7-5.2,3.5-5.4c1.5-0.2,3.3,1.3,5.6,4.5c2.9,4.1,5.1,6.3,6.6,7.8c1.5,1.5,2.2,2.2,2,3.5
				C375.7,120.3,368.7,122.6,364.6,122.6z M362.9,99.6c-0.1,0-0.2,0-0.3,0c-1.6,0.2-2.5,2.9-3.3,5.3c-1.5,4.6-1.7,11,1.1,15.1
				c1,1.5,2.3,2.3,3.7,2.4h0c3.9,0.2,11.4-2,12.4-7.2c0.2-1.2-0.4-1.8-1.9-3.3c-1.4-1.4-3.6-3.6-6.6-7.8
				C365.9,101.1,364.2,99.6,362.9,99.6z"/>
		</g>
		<g>
			<path class="st10" d="M342.9,165.4c-6-1.2-8.9-10-4.4-21.7c1.1-2.7,5.4-11.5,11.5-2.2c4,6,9.8,7.4,10.9,10.3
				C362.9,157.3,348.9,166.7,342.9,165.4z"/>
			<path class="st11" d="M344.1,165.6c-0.4,0-0.9,0-1.3-0.1c-2.1-0.4-3.9-1.8-5.1-3.9c-2.4-4.3-2.1-10.8,0.6-17.9
				c0.7-1.8,2.8-6.1,5.9-6.4c1.9-0.2,3.9,1.2,5.8,4.2c2.2,3.3,4.9,5.2,7.1,6.7c1.8,1.3,3.3,2.3,3.8,3.6c0.6,1.6-0.1,3.7-2.1,6
				C355.5,161.7,348.6,165.6,344.1,165.6z M344.6,137.5c-0.1,0-0.2,0-0.3,0c-2.9,0.3-4.9,4.5-5.7,6.3c-2.7,6.9-2.9,13.5-0.6,17.7
				c1.2,2.1,2.8,3.4,4.9,3.8l0,0c4.2,0.9,12.1-3.5,15.8-7.7c1.3-1.5,2.8-3.8,2.1-5.8c-0.5-1.3-1.9-2.2-3.7-3.5
				c-2.2-1.5-5-3.5-7.2-6.8C348.1,138.8,346.3,137.5,344.6,137.5z"/>
		</g>
		<g>
			<path class="st10" d="M370.9,151.2c-5.3-0.8-8.7-10.6-5.8-21.1c0.8-2.8,4.2-12,11.2-3.3c4.6,5.6,10.3,8,11,11
				C388.7,143.9,376,152,370.9,151.2z"/>
			<path class="st11" d="M371.7,151.4c-0.3,0-0.5,0-0.8-0.1l0,0c-1.7-0.3-3.2-1.4-4.4-3.2c-2.8-4.3-3.4-11.3-1.5-18
				c0.4-1.5,2-6.3,5.2-7c1.9-0.4,4,0.8,6.2,3.6c2.2,2.6,4.6,4.6,6.6,6.1c2.3,1.8,4.1,3.3,4.5,4.9c0.6,2.5-1.2,5-2.7,6.7
				C381.1,148.3,375.2,151.4,371.7,151.4z M370.8,123.3c-0.2,0-0.4,0-0.6,0.1c-3,0.6-4.6,5.4-5,6.8c-1.8,6.6-1.2,13.6,1.5,17.8
				c1.2,1.8,2.6,2.9,4.2,3.1h0c3.3,0.5,9.9-2.8,13.6-6.8c1.5-1.6,3.2-4.1,2.7-6.5c-0.4-1.5-2.1-3-4.4-4.8c-2-1.6-4.4-3.5-6.6-6.2
				C374.3,124.5,372.5,123.3,370.8,123.3z"/>
		</g>
		<g>
			<path class="st10" d="M449.3,97.9c0.1-5.5,1.4-10.7,8-18.7c2.3-2.8,8.9-8.4,9.4,1.1c0.3,5.4,6,12.2,4.2,15.2
				C468.1,100,449.2,103.8,449.3,97.9z"/>
			<path class="st11" d="M455.1,101c-1.3,0-2.4-0.1-3.4-0.4c-1.7-0.5-2.6-1.4-2.5-2.7v0c0.1-7.7,3.2-12.9,8-18.8
				c1.5-1.8,4.8-4.9,7.2-4.1c1.4,0.5,2.2,2.3,2.4,5.3c0.1,2.4,1.3,5.1,2.5,7.7c1.4,3.2,2.7,5.9,1.7,7.6
				C469.2,98.4,460.9,101,455.1,101z M449.4,97.9c0,1.2,0.8,2,2.4,2.5c5.2,1.5,16.9-1.5,19-5c1-1.6-0.3-4.4-1.7-7.4
				c-1.2-2.6-2.4-5.3-2.5-7.7c-0.2-2.9-0.9-4.6-2.2-5.1c-2.1-0.7-5.3,2-7,4C450.9,87.2,449.5,92.2,449.4,97.9L449.4,97.9z"/>
		</g>
		<g>
			<path class="st10" d="M301,31.8c0,0-3.8,5.3,1.2,18.1c0,0,6.4,15.3,13.2,11.2c1.6-1,2.9-3.3,2.9-8.6c0,0,0.2-6.1,3.6-11.3
				c1.5-2.2,0.6-6.8-9.3-9.9C312.6,31.4,302.1,28.6,301,31.8z"/>
			<path class="st11" d="M313,61.9c-0.5,0-1-0.1-1.5-0.2c-5.2-1.7-9.3-11.3-9.4-11.7c-2.6-6.6-2.8-11.2-2.5-13.9
				c0.3-2.8,1.2-4.1,1.3-4.3c1-2.8,8.6-1.2,11.1-0.7c0.2,0,0.4,0.1,0.5,0.1v0l0.2,0.1c3.1,1,8.5,3.1,9.7,6.7
				c0.4,1.2,0.3,2.4-0.4,3.4c-3.3,5.1-3.6,11.2-3.6,11.2c0,4.6-1,7.5-3,8.7C314.7,61.7,313.9,61.9,313,61.9z M304.9,30.4
				c-2.2,0-3.5,0.5-3.8,1.5l0,0c0,0.1-3.7,5.4,1.2,18c0,0.1,4.2,9.9,9.3,11.6c1.3,0.4,2.6,0.3,3.7-0.4c1.9-1.2,2.8-4,2.8-8.5
				c0-0.1,0.2-6.2,3.6-11.4c0.6-0.9,0.7-2,0.3-3.1c-0.5-1.5-2.5-4.3-9.5-6.6c-0.1,0-0.2,0-0.6-0.1C309,30.7,306.7,30.4,304.9,30.4z"
				/>
		</g>
		<g>
			<path class="st10" d="M276.5,28.5c0,0-2.9,4.8,2.3,15.2c0,0,6.6,12.4,12.2,8.5c1.3-0.9,2.3-3,1.9-7.5c0,0-0.2-5.2,2.3-9.8
				c1.1-2,0.1-5.8-8.7-7.7C286.5,27.3,277.2,25.7,276.5,28.5z"/>
			<path class="st11" d="M288.7,53.1c-0.3,0-0.7,0-1-0.1c-4.6-1.1-8.8-8.9-8.9-9.2c-5.1-10.1-2.5-14.9-2.3-15.3
				c0.6-2.4,7.3-1.7,9.5-1.4c0.2,0,0.4,0,0.5,0.1v0l0.2,0c6,1.3,8.1,3.4,8.8,4.9c0.5,1,0.4,2,0,2.9c-2.5,4.5-2.3,9.7-2.3,9.7
				c0.3,3.9-0.3,6.5-2,7.6C290.3,52.8,289.5,53.1,288.7,53.1z M281.3,27c-2.9,0-4.5,0.5-4.7,1.6l0,0c0,0-2.8,4.9,2.3,15.1
				c0,0.1,4.3,8,8.8,9.1c1.2,0.3,2.3,0.1,3.2-0.6c1.6-1.1,2.2-3.6,1.8-7.4c0-0.1-0.2-5.3,2.3-9.9c0.3-0.5,0.6-1.5,0-2.7
				c-0.7-1.5-2.7-3.5-8.6-4.8c-0.1,0-0.2,0-0.6-0.1C284.1,27.1,282.6,27,281.3,27z"/>
		</g>
		<g>
			<path class="st10" d="M281.1,69.1c0,0-3,7.1,5.2,19.7c0,0,7.9,11.5,10.8,7.2c1.5-2.2-0.5-6.2,0.7-9.5c1.3-3.5,6.1-8.3,3.6-14.4
				c0,0-2.3-5.1-9.1-5.8C292.3,66.5,283.1,64.7,281.1,69.1z"/>
			<path class="st11" d="M295.4,97.1c-3.5,0-9-7.9-9.2-8.2c-4.3-6.5-5.4-11.6-5.7-14.6c-0.3-3.3,0.5-5.1,0.5-5.2l0,0
				c1.7-3.7,8.4-3.1,10.6-2.9c0.2,0,0.5,0,0.6,0v0l0.1,0c6.8,0.7,9.2,5.8,9.2,5.9c1.9,4.6-0.3,8.5-2.1,11.6c-0.6,1-1.2,2-1.5,2.9
				c-0.6,1.6-0.4,3.3-0.2,5c0.2,1.7,0.3,3.4-0.5,4.6C296.8,96.7,296.1,97.1,295.4,97.1C295.4,97.1,295.4,97.1,295.4,97.1z
				 M281.2,69.1c0,0.1-0.7,1.8-0.5,5.1c0.3,3,1.4,8,5.7,14.5c0.1,0.1,5.6,8.1,9,8.1c0,0,0,0,0,0c0.7,0,1.2-0.3,1.6-0.9
				c0.7-1.1,0.6-2.7,0.4-4.4c-0.2-1.7-0.3-3.4,0.3-5.1c0.3-0.9,0.9-1.9,1.5-3c1.8-3.1,3.9-6.9,2.1-11.4c0,0-2.3-5-9-5.7
				c-0.1,0-0.2,0-0.8,0C289.4,66.2,282.8,65.6,281.2,69.1z"/>
		</g>
		<g>
			<path class="st10" d="M263.7,65c0,0-2,4.6,3.8,14.3c0,0,6.5,8.7,9.2,5c1.4-1.9-0.2-5.1,0.9-7.8c1.2-3,4-6.7,2-11.4
				c0,0-1.9-4.4-7.8-4.3C271.8,60.6,265.6,61.2,263.7,65z"/>
			<path class="st11" d="M275,85.3c-3.1,0-7.4-5.7-7.6-6c-5.8-9.7-3.9-14.2-3.8-14.4l0,0c1.8-3.6,7.6-4.4,8.2-4.3c0,0,0,0,0,0
				c0.1,0,0.1,0,0.2,0c5.8,0,7.7,4.3,7.7,4.4c1.6,3.8,0.1,7.1-1.2,9.7c-0.3,0.6-0.6,1.2-0.8,1.8c-0.5,1.3-0.4,2.6-0.3,4
				c0.1,1.5,0.2,2.8-0.6,3.9C276.3,85,275.7,85.3,275,85.3C275,85.3,275,85.3,275,85.3z M263.8,65.1c-0.7,1.6-0.8,6.6,3.8,14.2
				c0,0,4.4,5.9,7.4,5.9c0,0,0,0,0,0c0.6,0,1.2-0.3,1.6-0.9c0.7-1,0.6-2.3,0.5-3.7c-0.1-1.4-0.2-2.8,0.4-4.1
				c0.2-0.6,0.5-1.2,0.8-1.8c1.3-2.7,2.8-5.7,1.2-9.5c0,0-1.9-4.2-7.5-4.2c-0.1,0-0.1,0-0.2,0l-0.1,0v0
				C270.9,60.8,265.5,61.6,263.8,65.1z"/>
		</g>
		<g>
			<g>
				<circle class="st10" cx="508.5" cy="-37.5" r="23.2"/>
				<path class="st10" d="M508.5-13.8c-13.1,0-23.7-10.6-23.7-23.7s10.6-23.7,23.7-23.7s23.7,10.6,23.7,23.7S521.6-13.8,508.5-13.8z
					 M508.5-60.2c-12.5,0-22.7,10.2-22.7,22.7s10.2,22.7,22.7,22.7s22.7-10.2,22.7-22.7S521-60.2,508.5-60.2z"/>
			</g>
			<g>
				<circle class="st14" cx="502.9" cy="-35.1" r="15.2"/>
			</g>
			<g>
				<circle class="st10" cx="497.9" cy="-41.4" r="5.2"/>
				<path class="st10" d="M497.9-35.7c-3.1,0-5.7-2.6-5.7-5.7s2.6-5.7,5.7-5.7s5.7,2.6,5.7,5.7S501-35.7,497.9-35.7z M497.9-46.1
					c-2.6,0-4.7,2.1-4.7,4.7c0,2.6,2.1,4.7,4.7,4.7c2.6,0,4.7-2.1,4.7-4.7C502.6-44,500.5-46.1,497.9-46.1z"/>
			</g>
		</g>
		<g class="st1">
			<path class="st3" d="M473.9-49.7c7.6-2.7,20.4-10.6,37.3-12.3c16.1-1.7,33.3-1,37.8-1.5c3.9-0.4-9.9-13.3-18.9-17.5
				c-9.2-4.3-21-5.8-32.2-4.1C478-82,463.4-64.3,460.4-58.7C457.3-53,457.6-44,473.9-49.7z"/>
		</g>
		<g class="st1">
			<path class="st3" d="M458.8-53.6c3.8,3.3,9.4,1.1,14.6-1.5c6.6-3.3,14.1-9,20.9-11.8c13.9-5.7,28.5-7.3,42.7-3.8
				c4,1,12.7,5.1,12.4,6.7c-0.2,1.1-11.2,0.6-16.8,0.6c-6.4,0-22.6-0.9-37.2,5.4c-8.2,3.5-14.6,6-22.6,8.6
				C457.9-44.6,458.8-53.6,458.8-53.6z"/>
		</g>
		<g>
			<path class="st3" d="M326.4-59.4c-3.3,2.3-8.5,8.2-5.2,11.3c4.9,4.7,23.7-6.5,18.5-13C339.7-61.1,336.1-66.3,326.4-59.4z"/>
		</g>
		<g class="st1">
			<path class="st3" d="M321.8,218.5c0,0,32.3,7.9,68-7.4c36.2-15.5,36.8-36.7,88.9-44.5c10.7-1.6,29.2-5.9,46.4-11.4
				c14.6-4.7,53.5-25,69.3-53c18.3-32.2,17.7-61.5,18.2-61.4c0,0,9.2,62.2-33.4,99.4c-13.7,12-31.2,27.6-62.9,36.7
				c-23.8,6.8-69.9,26.1-81.2,31C411,218.1,362.6,238.5,321.8,218.5z"/>
		</g>
		<g class="st15">
			<path class="st11" d="M387,77.7c0.7-0.6-6.6-18.8-17.4-19.4c0,0-56.8,14.1-87.1,4.7c-14.9-4.6-17.8-14.6-18.4-15.4
				c-3.9-5.3-10.4,11-3.1,17.1c3.1,2.6,8.8,8.4,16.5,12.5c0.4-1.2,0.8-2,1.2-2.6c0.6,0.3,1,0.3,1.9,0.5c0.5,2.5,0.9,4.1,0.9,4.1
				s10.7,4,17.3,5.5c3.2-4.7,3.4-7.7,3.4-7.7s1.3-0.1,1.8-0.1c0.5,2.8,3.1,8.5,3.9,9.3c5.5,0.7,11.6,1.1,18.3,1
				c0.3-1.3,3.9-8.2,2.8-13.2l2-0.4c1.9,6.1,8.2,13,9,13c4.9-0.4,10.1-0.9,15.6-1.7c-0.2-3.2-3.2-8.7-0.6-16.3l1.2-0.3
				c0.3,3.1,8.5,16.3,15.5,13.6c4.3-1.5,2.3-8.2,2.3-8.2S382,82.2,387,77.7z"/>
		</g>
		<g>
			<path class="st10" d="M249.2,43.2c0,0-2.4,2.5,2.4,12.7c0,0,6.1,12.1,9.9,8.3c0.9-0.9,1.4-3,0.8-7.3c0,0-0.6-5.1,0.9-9.6
				c0.7-2-0.2-6.9-7.2-7.5C254.1,39.7,249.5,40.5,249.2,43.2z"/>
			<path class="st11" d="M259.8,65.1c-0.1,0-0.3,0-0.4,0c-3.6-0.6-7.8-8.7-8-9.1c-4.5-9.7-2.7-12.5-2.4-12.8
				c0.4-2.9,5.3-3.6,6.9-3.5c3.9,0.3,5.7,2,6.6,3.3c1,1.6,1.1,3.3,0.7,4.4c-1.5,4.4-0.9,9.5-0.9,9.5c0.5,3.8,0.3,6.3-0.8,7.4
				C261.1,64.8,260.5,65.1,259.8,65.1z M249.3,43.3c0,0-0.6,0.6-0.6,2.5c0,1.7,0.5,4.9,3,10.1c0,0.1,4.3,8.4,7.8,8.9
				c0.7,0.1,1.4-0.1,1.9-0.7c1-1,1.3-3.5,0.8-7.2c0-0.1-0.6-5.2,0.9-9.7c0.3-1,0.3-2.7-0.7-4.1c-0.8-1.3-2.6-2.9-6.4-3.2
				C254.2,39.8,249.6,40.6,249.3,43.3L249.3,43.3L249.3,43.3z"/>
		</g>
		<g>
			<path class="st10" d="M329.7,42.9c0,0-6,8.9,2.3,23.3c0,0,8.1,13,13.2,7.6c2.6-2.8,0.9-7.5,3.4-11.5c2.6-4.3,13.8-12.5,8.6-17.7
				C352.5,39.7,333.7,37.4,329.7,42.9z"/>
			<path class="st11" d="M342.4,75.2c-0.1,0-0.3,0-0.4,0c-4.7-0.5-9.8-8.6-10-9c-8.2-14.3-2.4-23.3-2.3-23.4l0,0
				c1.6-2.3,5.4-3,8.3-3.2c7.3-0.5,16.4,1.8,19.4,4.9c3.9,3.9-1.1,9.3-5.1,13.7c-1.4,1.6-2.8,3-3.5,4.2c-1.2,1.9-1.4,4-1.6,6
				c-0.2,2.1-0.4,4.1-1.8,5.5C344.4,74.8,343.5,75.2,342.4,75.2z M329.8,43c0,0.1-1.5,2.3-1.9,6.2c-0.4,3.7,0,9.6,4.2,17
				c0,0.1,5.3,8.4,9.9,8.8c1.2,0.1,2.2-0.3,3.1-1.3c1.3-1.4,1.5-3.3,1.7-5.4c0.2-2,0.4-4.1,1.7-6.1c0.7-1.2,2.1-2.6,3.5-4.2
				c3.9-4.3,8.8-9.6,5.1-13.3c-2.9-3-11.9-5.3-19.2-4.8C333.9,40.2,331,41.3,329.8,43z"/>
		</g>
		<g>
			<path class="st10" d="M365.2,48c0,0-3.7,6.5,4.2,19.7c0,0,10,15.7,17.6,10c1.8-1.3,3-4.2,2.2-10c0,0-0.7-6.8,2.6-13
				c1.4-2.7-0.2-7.6-12.6-9.3C379.1,45.4,366.1,44.3,365.2,48z"/>
			<path class="st11" d="M383.4,79.1c-0.4,0-0.8,0-1.2-0.1c-6.4-1.2-12.8-11.1-12.9-11.2c-4.1-6.8-5-11.9-5.1-14.9
				c-0.1-3.1,0.8-4.8,0.9-4.9c0.4-1.5,2.7-2.5,7-2.7c2.9-0.2,5.9,0,7.1,0.1l0.1,0c4.8,0.7,10.8,2.2,12.6,5.8
				c0.6,1.2,0.7,2.6,0.1,3.7c-3.2,6.1-2.6,12.9-2.6,12.9c0.7,5.1-0.1,8.5-2.3,10.1C385.9,78.6,384.7,79.1,383.4,79.1z M375,45.4
				c-3.9,0-9.1,0.4-9.6,2.7l0,0c0,0-0.9,1.6-0.8,4.9c0.1,3,1,7.9,5,14.7c0.1,0.1,6.4,9.9,12.7,11.1c1.7,0.3,3.3-0.1,4.7-1.1
				c2.1-1.5,2.8-4.9,2.2-9.9c0-0.1-0.7-6.9,2.6-13.1c0.3-0.6,0.8-1.9-0.1-3.5c-0.8-1.6-3.5-4.4-12.4-5.6l0,0c0,0,0,0-0.1,0
				C378.4,45.5,376.8,45.4,375,45.4z"/>
		</g>
		<g>
			<path class="st10" d="M258.6,30.1c0,0-1.7,2.9,2.7,13.6c0,0,5.6,12.8,9.9,9c1-0.9,1.7-3,1.3-7.4c0,0-0.3-5.2,1.5-9.7
				c0.8-2,0.8-7.9-6.5-8.8C265,26.5,259.1,27.4,258.6,30.1z"/>
			<path class="st11" d="M269.5,53.5c-0.2,0-0.4,0-0.6-0.1c-3.8-0.8-7.6-9.4-7.7-9.7c-4.2-10.3-2.9-13.4-2.7-13.7
				c0.6-2.8,6.6-3.7,9-3.4c2.9,0.4,4.9,1.5,6.1,3.4c1.2,2,1,4.4,0.5,5.6c-1.8,4.4-1.5,9.6-1.5,9.6c0.4,3.9-0.1,6.4-1.3,7.5
				C270.7,53.3,270.1,53.5,269.5,53.5z M258.7,30.2c0,0-1.6,3,2.7,13.5c0,0.1,3.9,8.8,7.5,9.6c0.8,0.2,1.5,0,2.2-0.6
				c1.2-1.1,1.6-3.5,1.3-7.3c0-0.1-0.3-5.3,1.5-9.8c0.4-1.1,0.6-3.4-0.5-5.3c-1.1-1.8-3.1-2.9-5.9-3.3
				C265,26.6,259.2,27.5,258.7,30.2L258.7,30.2z"/>
		</g>
	</g>
</g>
</svg>
